<svg id="Layer_1" data-name="Layer 1" xmlns="http://www.w3.org/2000/svg" viewBox="0 0 1920 1920"><defs><style>.cls-1{fill:#f2f2f2;}.cls-2{fill:#e6e7e7;}.cls-3{fill:#231f20;}.cls-4{fill:#414142;}.cls-5{fill:#912579;}.cls-6{fill:#e90e8b;}</style></defs><path class="cls-1" d="M458.49,729.87a7.92,7.92,0,0,0,11,0l22.91-21.43A8.41,8.41,0,0,0,495,702.5V671.42a8.06,8.06,0,0,0-8.06-8.06H441.09a8,8,0,0,0-8.06,8.06V702.5a8.44,8.44,0,0,0,2.54,5.94Z"/><path class="cls-1" d="M531.26,804.14a8.15,8.15,0,0,0,5.94,2.65h31.09a8.16,8.16,0,0,0,8.06-8.17V752.79a8.06,8.06,0,0,0-8.06-8.06H537.2a8.44,8.44,0,0,0-5.94,2.54l-21.43,22.92a8.3,8.3,0,0,0,0,11.14Z"/><path class="cls-1" d="M492.43,843.07l-22.91-21.43a8,8,0,0,0-5.52-2.23,8.34,8.34,0,0,0-5.51,2.12l-22.92,21.54A8,8,0,0,0,433,848.9v31.19a8.06,8.06,0,0,0,8.06,8.07h45.83a8.06,8.06,0,0,0,8.06-8.07V848.9A8,8,0,0,0,492.43,843.07Z"/><path class="cls-1" d="M359.72,807.21H390.8a8.42,8.42,0,0,0,6.16-2.65l21.64-22.92a8.89,8.89,0,0,0,0-11.77L397.06,747a8.6,8.6,0,0,0-4.35-2.44,5.55,5.55,0,0,0-1.91-.31H359.72a8.56,8.56,0,0,0-8.59,8.59v45.83A8.56,8.56,0,0,0,359.72,807.21Z"/><path class="cls-1" d="M200.44,792.93c9.41,236.48,126.81,445.25,304.26,578.21m0,0L509,1366l61.57-73.3,112.87-134.62-37.13,104.47c46.43-14.56,131-22.19,313.74-22.19s267.31,7.63,313.81,22.19l-37.14-104.47,112.88,134.62,61.57,73.3,4.26,5.09h0c177.45-132.89,294.86-341.66,304.19-578.14,0,0,0-.07,0-.11C1643.1,443.92,1331.63,182,960.08,182S277,444,200.47,792.92m350-427.29a.2.2,0,0,0,.13-.06,718.38,718.38,0,0,1,139.94-75.43h.06a717.79,717.79,0,0,1,219.8-50.29V566.72L800.38,430.4H668c-.49.28-1,.52-1.49.8L787.77,581.41h0l87.93,108.89a272.14,272.14,0,0,0-73.51,37.14L629.66,513.78S609.85,484,591.44,485.43l-11.67,1C412.57,501.34,365,551.62,329.84,608.25A723.8,723.8,0,0,1,550.52,365.63ZM464,917.33A141.62,141.62,0,0,1,322.38,775.81v-.42A141.68,141.68,0,0,1,446.82,635.14a151.78,151.78,0,0,1,17.18-1A141.38,141.38,0,0,1,605.42,770.29a48.6,48.6,0,0,1,.21,5.52C605.63,853.89,542.19,917.33,464,917.33Zm838.85,157.23a140.24,140.24,0,0,1-125,39.17l0,0a140.55,140.55,0,0,1-57.8-24.51,212,212,0,0,1-310.08,10.58c-3.38-3.39-6.6-6.92-9.76-10.53a140.61,140.61,0,0,1-57.83,24.47l0,0a141.55,141.55,0,0,1-165.72-124.8,142.84,142.84,0,0,1,.05-29.33c.12-1.13.37-2.22.51-3.34.5-3.85,1.06-7.68,1.86-11.43,0-.08,0-.16,0-.25.55-2.58,1.29-5.09,2-7.62q1.39-5.07,3.14-10c.75-2.09,1.45-4.21,2.29-6.26s1.79-4,2.72-6S591,911,592,909.1s2.13-3.88,3.25-5.79,2.07-3.52,3.18-5.24q1.8-2.8,3.73-5.52c1.17-1.65,2.38-3.25,3.62-4.84,1.37-1.77,2.75-3.52,4.2-5.22,1.3-1.51,2.66-3,4-4.41,1.53-1.65,3-3.31,4.65-4.89,1.39-1.36,2.88-2.63,4.34-3.94q5.14-4.63,10.75-8.76c1.27-.94,2.49-2,3.8-2.85,1.94-1.33,4-2.51,6-3.75,1.61-1,3.19-2,4.85-2.94,2-1.14,4.14-2.17,6.24-3.22,1.73-.86,3.45-1.72,5.21-2.51,2.14-1,4.31-1.83,6.51-2.68,1.82-.7,3.64-1.38,5.5-2,2.23-.76,4.48-1.48,6.76-2.13,1.9-.55,3.82-1,5.75-1.48,2.32-.56,4.63-1.11,7-1.56,2-.37,4-.62,6-.91,2.39-.34,4.75-.73,7.17-1,2.13-.19,4.31-.22,6.47-.32.87,0,1.73-.11,2.61-.14v0c1.35,0,2.67-.17,4-.17a141.11,141.11,0,0,1,57.62,12.28,213.93,213.93,0,0,1,64.94-70.74h0l1.78-1.24c2.31-1.54,4.65-3,7-4.49.44-.27.87-.56,1.3-.82q8.58-5.21,17.66-9.61l1.6-.73q3.66-1.74,7.39-3.35c.94-.4,1.91-.77,2.86-1.16,2.11-.87,4.22-1.72,6.35-2.51,1.13-.42,2.27-.81,3.41-1.22,2-.7,4-1.39,6-2,1.24-.4,2.49-.78,3.74-1.15,1.95-.58,3.91-1.15,5.89-1.68,1.31-.35,2.62-.68,3.94-1,2-.48,3.92-.93,5.89-1.36.72-.16,1.42-.35,2.15-.5l0,0,43,53.2,43-53.19,0,0c.8.17,1.57.38,2.37.55,1.82.4,3.64.81,5.45,1.26,1.45.36,2.91.73,4.35,1.12,1.82.49,3.62,1,5.43,1.54,1.39.42,2.78.84,4.17,1.28q2.78.9,5.52,1.88c1.29.45,2.58.89,3.86,1.37,2,.73,3.91,1.52,5.86,2.31,1.1.45,2.22.88,3.31,1.35,2.33,1,4.63,2.06,6.92,3.13.67.32,1.36.61,2,.94q9.08,4.4,17.65,9.6l1,.61q3.76,2.31,7.43,4.76c.52.35,1,.72,1.55,1.08a214,214,0,0,1,65.1,70.8,140.91,140.91,0,0,1,57.65-12.26c1.32,0,2.62.12,3.94.16h0l1.11.06c2.62.09,5.24.16,7.81.39,2.16.2,4.28.52,6.41.81s4.41.6,6.58,1,4.25.86,6.35,1.35,4.21,1,6.29,1.62,4.08,1.16,6.09,1.83,4.19,1.49,6.26,2.29c1.88.72,3.77,1.4,5.61,2.2,2.56,1.11,5,2.37,7.52,3.62s4.93,2.61,7.34,4c2.2,1.29,4.42,2.57,6.54,4,1.64,1.08,3.21,2.24,4.8,3.39,1.81,1.3,3.6,2.61,5.34,4,1.57,1.24,3.09,2.53,4.6,3.84,1.68,1.45,3.31,2.94,4.92,4.47,1.42,1.34,2.83,2.69,4.19,4.1,1.65,1.71,3.23,3.48,4.79,5.27,1.18,1.34,2.39,2.64,3.51,4,2.52,3.1,4.94,6.3,7.19,9.62.66,1,1.22,2,1.85,3,1.66,2.57,3.28,5.18,4.78,7.87.76,1.36,1.44,2.77,2.15,4.17,1.26,2.45,2.48,4.92,3.59,7.45q.93,2.1,1.78,4.25c1.12,2.75,2.13,5.55,3.07,8.39.41,1.22.83,2.43,1.2,3.66.26.86.58,1.68.82,2.54v.11c.88,3.12,1.64,6.3,2.3,9.52l.06.32c.82,4,1.41,8.14,1.87,12.3.11,1,.22,2,.31,2.95.39,4.32.66,8.68.66,13.1A141,141,0,0,1,1302.85,1074.56Zm49.53-256.85a46.27,46.27,0,0,1-46.15-46.25,42.58,42.58,0,0,1,2.23-13.79,46.05,46.05,0,0,1,87.94,0,42.58,42.58,0,0,1,2.23,13.79A46.36,46.36,0,0,1,1352.38,817.71Zm101.2,98.67a46.21,46.21,0,0,1-46.15-46.26,42.85,42.85,0,0,1,2.23-13.79,46.06,46.06,0,0,1,87.95,0,42.85,42.85,0,0,1,2.23,13.79A46.3,46.3,0,0,1,1453.58,916.38Zm-44.24-244.85a43,43,0,0,1,86,0,3.47,3.47,0,0,1-.1,1.06,43,43,0,0,1-85.94-1.06Zm188.52,99.93a43.1,43.1,0,0,1-43.07,43.07c-1.7,0-3.5-.21-5.09-.32a43.06,43.06,0,0,1-35.54-56.75,43.32,43.32,0,0,1,40.63-29,43,43,0,0,1,40.74,29.17A39.24,39.24,0,0,1,1597.86,771.46Zm-257.4-285.07-11.68-1c-18.4-1.41-38.22,28.35-38.22,28.35L1118,727.44a271.8,271.8,0,0,0-73.52-37.15l21.76-26.95h0L1253.68,431.2c-.49-.28-1-.52-1.49-.8H1119.83L1008.67,568V239.78a716.32,716.32,0,0,1,360.9,125.79c0,.06.07.06.07.06a724,724,0,0,1,220.29,241.85C1554.79,551.17,1506.88,501.27,1340.46,486.39Z"/><path class="cls-2" d="M1415.47,1371.07l69.81,83.19a721.1,721.1,0,0,1-1050.38.07l69.8-83.19c-177.45-133-294.85-341.73-304.26-578.21a781.79,781.79,0,0,0-18,166.74c0,428.76,348.82,777.66,777.66,777.66s777.66-348.9,777.66-777.66a777.33,777.33,0,0,0-18.09-166.74C1710.33,1029.41,1592.92,1238.18,1415.47,1371.07Z"/><path class="cls-3" d="M1352.38,790a46,46,0,0,1-43.92-32.36,42.58,42.58,0,0,0-2.23,13.79,46.2,46.2,0,1,0,92.4,0,42.58,42.58,0,0,0-2.23-13.79A46.16,46.16,0,0,1,1352.38,790Z"/><path class="cls-3" d="M1453.58,888.69a46,46,0,0,1-43.92-32.36,42.85,42.85,0,0,0-2.23,13.79,46.21,46.21,0,1,0,92.41,0,42.85,42.85,0,0,0-2.23-13.79A46.18,46.18,0,0,1,1453.58,888.69Z"/><path class="cls-4" d="M1415.46,1371.07l-4.26-5.09-61.57-73.3-112.88-134.62,37.14,104.47c-46.5-14.56-131.09-22.19-313.81-22.19s-267.31,7.63-313.74,22.19l37.13-104.47L570.6,1292.68,509,1366l-4.31,5.14a760,760,0,0,0,910.76,0Z"/><path class="cls-4" d="M840.11,774.43h0l1.78-1.24Z"/><path class="cls-4" d="M1003.08,741.57l0,0c.81.16,1.61.32,2.41.5C1004.65,742,1003.88,741.74,1003.08,741.57Z"/><path class="cls-4" d="M917.09,741.57c-.73.15-1.43.34-2.15.5l2.18-.46Z"/><path class="cls-4" d="M1369.64,365.63s-.07,0-.07-.06a716.32,716.32,0,0,0-360.9-125.79V568L1119.83,430.4h132.36c.49.28,1,.52,1.49.8L1066.25,663.33h0l-21.76,26.95A271.8,271.8,0,0,1,1118,727.44l172.54-213.66s19.82-29.76,38.22-28.35l11.68,1c166.42,14.88,214.33,64.78,249.47,121.09A724,724,0,0,0,1369.64,365.63Z"/><path class="cls-4" d="M579.77,486.39l11.67-1c18.41-1.41,38.22,28.35,38.22,28.35l172.5,213.65a272.14,272.14,0,0,1,73.51-37.14L787.74,581.4h0L666.48,431.2c.49-.28,1-.52,1.49-.8H800.38L910.45,566.72V239.85a717.79,717.79,0,0,0-219.8,50.29h-.06a718.38,718.38,0,0,0-139.94,75.43.2.2,0,0,1-.13.06A723.8,723.8,0,0,0,329.84,608.25C365,551.62,412.57,501.34,579.77,486.39Z"/><path class="cls-3" d="M1554.79,786.74a40.08,40.08,0,0,1-5.09-.32,42.62,42.62,0,0,1-35.54-29,43.06,43.06,0,0,0,35.54,56.75c1.59.11,3.39.32,5.09.32a43.1,43.1,0,0,0,43.07-43.07,39.24,39.24,0,0,0-2.33-13.79A43.07,43.07,0,0,1,1554.79,786.74Z"/><path class="cls-3" d="M1452.42,714.6a43,43,0,0,0,42.86-42,3.47,3.47,0,0,0,.1-1.06,43.07,43.07,0,0,0-2.33-13.9,43,43,0,0,1-81.37,0,43,43,0,0,0,40.74,57Z"/><path class="cls-3" d="M605.42,770.29A163.22,163.22,0,0,1,495,852.09v28a8.06,8.06,0,0,1-8.06,8.07H441.09a8.06,8.06,0,0,1-8.06-8.07V852.51a162.25,162.25,0,0,1-110.65-77.12v.42A141.62,141.62,0,0,0,464,917.33c78.19,0,141.63-63.44,141.63-141.52A48.6,48.6,0,0,0,605.42,770.29Z"/><path class="cls-5" d="M1123.5,1021.91c.35.59.8,1.12,1.17,1.7-.37-.59-.73-1.19-1.09-1.79Z"/><path class="cls-5" d="M772.25,1048.67a.2.2,0,0,1,0,.08,91.09,91.09,0,0,0,9.9-8.48,91.68,91.68,0,0,1-9.94,8.39Z"/><path class="cls-5" d="M795.33,1024c.45-.71.92-1.4,1.35-2.12l0,0C796.21,1022.56,795.79,1023.29,795.33,1024Z"/><path class="cls-5" d="M1145.39,1046.73c.83.66,1.67,1.32,2.53,2l0,0C1147.09,1048,1146.22,1047.39,1145.39,1046.73Z"/><path class="cls-5" d="M1087.33,1056.28a211.9,211.9,0,0,1-254.4.07,142.44,142.44,0,0,1-32.75,32.9c3.16,3.61,6.38,7.14,9.76,10.53A212,212,0,0,0,1120,1089.2,142.07,142.07,0,0,1,1087.33,1056.28Z"/><path class="cls-6" d="M851.33,928a141,141,0,0,1-18.4,128.31,211.9,211.9,0,0,0,254.4-.07,141.54,141.54,0,0,1-21-120v-.11A142.13,142.13,0,0,1,1145,845.15a214,214,0,0,0-65.1-70.8c-.52-.36-1-.73-1.55-1.08q-3.66-2.46-7.43-4.76l-1-.61q-8.57-5.19-17.65-9.6c-.67-.33-1.36-.62-2-.94-2.29-1.07-4.59-2.13-6.92-3.13-1.09-.47-2.21-.9-3.31-1.35-1.95-.79-3.89-1.58-5.86-2.31-1.28-.48-2.57-.92-3.86-1.37q-2.74-1-5.52-1.88c-1.39-.44-2.78-.86-4.17-1.28-1.81-.53-3.61-1-5.43-1.54-1.44-.39-2.9-.76-4.35-1.12-1.81-.45-3.63-.86-5.45-1.26-.8-.18-1.6-.34-2.41-.5l-43,53.19-43-53.2-2.18.46c-2,.43-3.94.88-5.89,1.36-1.32.33-2.63.66-3.94,1-2,.53-3.94,1.1-5.89,1.68-1.25.37-2.5.75-3.74,1.15-2,.64-4,1.33-6,2-1.14.41-2.28.8-3.41,1.22-2.13.79-4.24,1.64-6.35,2.51-1,.39-1.92.76-2.86,1.16q-3.74,1.6-7.39,3.35l-1.6.73q-9.08,4.4-17.66,9.61c-.43.26-.86.55-1.3.82-2.36,1.46-4.7,2.95-7,4.49l-1.78,1.24a213.93,213.93,0,0,0-64.94,70.74A141.73,141.73,0,0,1,851.33,928Z"/><path class="cls-3" d="M832.93,1056.35A141,141,0,0,0,851.33,928a139.34,139.34,0,0,1-51.77,88.69l-.12.21c-.66,1.28-1.37,2.52-2.1,3.76-.22.39-.43.8-.66,1.18-.43.72-.9,1.41-1.35,2.12-.63,1-1.24,2-1.91,2.94-1.37,2-2.8,3.91-4.32,5.77-.43.52-.88,1-1.32,1.53-1.36,1.6-2.78,3.16-4.24,4.66-.45.46-.89.92-1.35,1.37a91.09,91.09,0,0,1-9.9,8.48h0c-.92.68-1.86,1.33-2.81,2l-.79.54a92.51,92.51,0,0,1-15.15,8.2l-.31.12c-2.65,1.12-5.35,2.11-8.12,3l-.25.08a91.14,91.14,0,0,1-17.32,3.56l-1.08.12c-2.94.28-5.89.48-8.9.48-.6,0-1.17-.1-1.77-.11-3-.06-5.88-.23-8.76-.56h-.11c-1.22-.14-2.41-.37-3.61-.56l-.25,0c-2.18-.35-4.35-.74-6.48-1.24l-.1,0c-1.29-.3-2.56-.63-3.82-1l-.1,0c-2.13-.6-4.21-1.29-6.28-2l-.08,0c-1.13-.41-2.28-.79-3.39-1.24h0c-2.73-1.12-5.4-2.36-8-3.72-.39-.2-.81-.36-1.2-.58a90.1,90.1,0,0,1-8.58-5.32c-.82-.57-1.6-1.2-2.41-1.8-2-1.45-3.86-3-5.69-4.56-.83-.72-1.64-1.47-2.44-2.22-1.81-1.69-3.54-3.46-5.21-5.29-.63-.69-1.27-1.36-1.88-2.06a94.9,94.9,0,0,1-6.21-8,140.22,140.22,0,0,1-62-81.79c0,.09,0,.17,0,.25-.8,3.75-1.36,7.58-1.86,11.43-.14,1.12-.39,2.21-.51,3.34a142.84,142.84,0,0,0-.05,29.33,141.57,141.57,0,0,0,223.53,100.31A142.44,142.44,0,0,0,832.93,1056.35Z"/><path class="cls-1" d="M803.55,1007.81c.27-.7.52-1.41.78-2.12q1.36-3.78,2.4-7.7c.21-.81.43-1.62.63-2.44.65-2.76,1.16-5.58,1.55-8.44.08-.61.21-1.22.28-1.84a91.15,91.15,0,0,0,.66-10.76,92.47,92.47,0,0,0-53.83-84,0,0,0,0,1,0,0,90.45,90.45,0,0,0-60.89-5.66v0a92.52,92.52,0,0,0-70,89.63c0,.88.08,1.74.1,2.61,0,1.8.12,3.6.27,5.37.11,1.28.28,2.54.44,3.81.2,1.51.42,3,.69,4.48.22,1.24.45,2.48.72,3.7.37,1.69.82,3.36,1.29,5,.41,1.43.83,2.86,1.31,4.27.62,1.85,1.28,3.69,2,5.49.44,1.08.93,2.13,1.41,3.19q1,2.12,2,4.19c.53,1,1.05,2,1.61,3,.89,1.57,1.83,3.09,2.81,4.6.45.7.87,1.44,1.34,2.13h0a94.9,94.9,0,0,0,6.21,8c.61.7,1.25,1.37,1.88,2.06,1.67,1.83,3.4,3.6,5.21,5.29.8.75,1.61,1.5,2.44,2.22,1.83,1.6,3.74,3.11,5.69,4.56.81.6,1.59,1.23,2.41,1.8a90.1,90.1,0,0,0,8.58,5.32c.39.22.81.38,1.2.58,2.59,1.36,5.26,2.6,8,3.72h0c1.11.45,2.26.83,3.39,1.24l.08,0c2.07.74,4.15,1.43,6.28,2l.1,0c1.26.35,2.53.68,3.82,1l.1,0c2.13.5,4.3.89,6.48,1.24l.25,0c1.2.19,2.39.42,3.61.56H707c2.88.33,5.8.5,8.76.56.6,0,1.17.11,1.77.11,3,0,6-.2,8.9-.48l1.08-.12a91.14,91.14,0,0,0,17.32-3.56l.25-.08c2.77-.87,5.47-1.86,8.12-3l.31-.12a92.51,92.51,0,0,0,15.15-8.2l.79-.54c.95-.64,1.89-1.29,2.81-2l0-.08h0a91.68,91.68,0,0,0,9.94-8.39c.46-.45.9-.91,1.35-1.37,1.46-1.5,2.88-3.06,4.24-4.66.44-.51.89-1,1.32-1.53,1.52-1.86,2.95-3.79,4.32-5.77.67-1,1.28-2,1.91-2.94.46-.71.88-1.44,1.32-2.16.23-.38.47-.75.69-1.14.73-1.24,1.44-2.48,2.1-3.76.11-.21.2-.43.31-.65A89.74,89.74,0,0,0,803.55,1007.81Z"/><path class="cls-3" d="M1343.34,958.46c-.46-4.16-1-8.27-1.87-12.3l-.06-.32c-.66-3.22-1.42-6.4-2.3-9.52a139.88,139.88,0,0,1-57.07,85.51c-.33.55-.75,1-1.09,1.58-1.32,2.1-2.72,4.12-4.2,6.1-.7.94-1.37,1.91-2.11,2.82a92.67,92.67,0,0,1-6.67,7.46c-.79.78-1.65,1.48-2.46,2.23-1.73,1.61-3.49,3.17-5.34,4.64-1.17.93-2.39,1.82-3.61,2.69-1.66,1.2-3.38,2.34-5.13,3.43-1.26.78-2.51,1.58-3.81,2.31-2.48,1.38-5,2.64-7.66,3.8-.45.2-.87.44-1.32.63-.86.37-1.78.64-2.66,1l-.11,0c-2.36.91-4.74,1.75-7.19,2.47l-.09,0c-1.29.38-2.62.69-3.93,1l-.17,0c-2.22.54-4.46,1-6.74,1.37l-.24,0c-1.25.2-2.49.42-3.75.57h-.15q-4.63.54-9.41.63c-.51,0-1,.1-1.51.1s-1-.1-1.51-.1c-3.18-.06-6.31-.27-9.41-.63-1.37-.16-2.7-.4-4-.62-2.33-.38-4.62-.84-6.89-1.4-1.34-.32-2.68-.64-4-1-2.61-.76-5.16-1.65-7.67-2.64-.94-.36-1.9-.69-2.83-1.09a89.57,89.57,0,0,1-8.61-4.28c-1.19-.66-2.32-1.39-3.48-2.11-1.87-1.16-3.7-2.37-5.48-3.66-.27-.19-.57-.36-.84-.56-.86-.64-1.7-1.3-2.53-2-1.93-1.53-3.77-3.16-5.57-4.84-.76-.7-1.56-1.35-2.29-2.08a91.81,91.81,0,0,1-6.65-7.43c-.79-1-1.51-2-2.26-3-1.38-1.86-2.71-3.77-3.95-5.74-.37-.58-.82-1.11-1.17-1.7l-.06-.08a140.25,140.25,0,0,1-57.08-85.51,141.59,141.59,0,1,0,278,38.19c0-4.42-.27-8.78-.66-13.1C1343.56,960.42,1343.45,959.44,1343.34,958.46Z"/><path class="cls-1" d="M1284.32,1017.72c1.21-2.26,2.34-4.57,3.36-6.94.25-.59.46-1.19.7-1.78q1.09-2.71,2-5.51c.32-1,.63-1.94.92-2.92.56-1.9,1-3.83,1.49-5.79.32-1.39.58-2.8.83-4.22s.52-3.08.71-4.64c.16-1.3.3-2.6.41-3.91.12-1.5.18-3,.23-4.54,0-1,.1-2,.1-3A92.17,92.17,0,0,0,1225,884.86v0a90.36,90.36,0,0,0-60.8,5.69h0a92.77,92.77,0,0,0-53.82,84c0,.17,0,.34,0,.51,0,2.61.16,5.18.39,7.73.07.8.16,1.6.25,2.39.28,2.45.64,4.87,1.11,7.26,0,.27.08.55.14.82.56,2.69,1.25,5.32,2,7.92.17.57.35,1.13.53,1.69.8,2.47,1.67,4.9,2.67,7.27,0,.12.09.25.14.37,1.1,2.58,2.32,5.09,3.64,7.54.19.36.39.71.59,1.06.52.94,1.12,1.83,1.67,2.75.36.6.72,1.2,1.09,1.79,1.24,2,2.57,3.88,3.95,5.74.75,1,1.47,2.05,2.26,3a91.81,91.81,0,0,0,6.65,7.43c.73.73,1.53,1.38,2.29,2.08,1.8,1.68,3.64,3.31,5.57,4.84.83.66,1.7,1.28,2.56,1.91l0,0c.27.2.57.37.84.56,1.78,1.29,3.61,2.5,5.48,3.66,1.16.72,2.29,1.45,3.48,2.11a89.57,89.57,0,0,0,8.61,4.28c.93.4,1.89.73,2.83,1.09,2.51,1,5.06,1.88,7.67,2.64,1.32.39,2.66.71,4,1,2.27.56,4.56,1,6.89,1.4,1.35.22,2.68.46,4,.62,3.1.36,6.23.57,9.41.63.51,0,1,.1,1.51.1s1-.1,1.51-.1q4.77-.09,9.41-.63h.15c1.26-.15,2.5-.37,3.75-.57l.24,0c2.28-.38,4.52-.83,6.74-1.37l.17,0c1.31-.32,2.64-.63,3.93-1l.09,0c2.45-.72,4.83-1.56,7.19-2.47l.11,0c.88-.34,1.8-.61,2.66-1,.45-.19.87-.43,1.32-.63,2.62-1.16,5.18-2.42,7.66-3.8,1.3-.73,2.55-1.53,3.81-2.31,1.75-1.09,3.47-2.23,5.13-3.43,1.22-.87,2.44-1.76,3.61-2.69,1.85-1.47,3.61-3,5.34-4.64.81-.75,1.67-1.45,2.46-2.23a92.67,92.67,0,0,0,6.67-7.46c.74-.91,1.41-1.88,2.11-2.82,1.48-2,2.88-4,4.2-6.1.82-1.3,1.65-2.6,2.41-3.95C1283.68,1018.88,1284,1018.3,1284.32,1017.72Z"/><path class="cls-4" d="M433,852.51V848.9a8,8,0,0,1,2.54-5.83l22.92-21.54a8.34,8.34,0,0,1,5.51-2.12,8,8,0,0,1,5.52,2.23l22.91,21.43A8,8,0,0,1,495,848.9v3.19a163.22,163.22,0,0,0,110.44-81.8A141.38,141.38,0,0,0,464,634.18a151.78,151.78,0,0,0-17.18,1A141.68,141.68,0,0,0,322.38,775.39,162.25,162.25,0,0,0,433,852.51Zm76.8-82.32,21.43-22.92a8.44,8.44,0,0,1,5.94-2.54h31.09a8.06,8.06,0,0,1,8.06,8.06v45.83a8.16,8.16,0,0,1-8.06,8.17H537.2a8.15,8.15,0,0,1-5.94-2.65l-21.43-22.81A8.3,8.3,0,0,1,509.83,770.19ZM433,671.42a8,8,0,0,1,8.06-8.06h45.83a8.06,8.06,0,0,1,8.06,8.06V702.5a8.41,8.41,0,0,1-2.55,5.94l-22.91,21.43a7.92,7.92,0,0,1-11,0l-22.92-21.43A8.44,8.44,0,0,1,433,702.5Zm-81.9,81.37a8.56,8.56,0,0,1,8.59-8.59H390.8a5.55,5.55,0,0,1,1.91.31,8.6,8.6,0,0,1,4.35,2.44l21.54,22.92a8.89,8.89,0,0,1,0,11.77L397,804.56a8.42,8.42,0,0,1-6.16,2.65H359.72a8.56,8.56,0,0,1-8.59-8.59Z"/><path class="cls-4" d="M641.16,1026.38h0c-.47-.69-.89-1.43-1.34-2.13-1-1.51-1.92-3-2.81-4.6-.56-1-1.08-2-1.61-3q-1.06-2.07-2-4.19c-.48-1.06-1-2.11-1.41-3.19-.73-1.8-1.39-3.64-2-5.49-.48-1.41-.9-2.84-1.31-4.27-.47-1.66-.92-3.33-1.29-5-.27-1.22-.5-2.46-.72-3.7-.27-1.48-.49-3-.69-4.48-.16-1.27-.33-2.53-.44-3.81-.15-1.77-.22-3.57-.27-5.37,0-.87-.1-1.73-.1-2.61a92.35,92.35,0,0,1,184.7,0,91.15,91.15,0,0,1-.66,10.76c-.07.62-.2,1.23-.28,1.84-.39,2.86-.9,5.68-1.55,8.44-.2.82-.42,1.63-.63,2.44q-1,3.91-2.4,7.7c-.26.71-.51,1.42-.78,2.12a89.74,89.74,0,0,1-3.8,8.48c-.07.15-.12.3-.19.44A139.34,139.34,0,0,0,851.33,928a141.75,141.75,0,0,0-133.78-95.15c-1.35,0-2.67.13-4,.17-.87,0-1.73.08-2.6.12-2.16.1-4.34.13-6.47.32-2.42.22-4.78.61-7.17,1-2,.29-4,.54-6,.91-2.37.45-4.68,1-7,1.56-1.93.46-3.85.93-5.75,1.48-2.28.65-4.53,1.37-6.76,2.13-1.86.63-3.68,1.31-5.5,2-2.2.85-4.37,1.73-6.51,2.68-1.76.79-3.48,1.65-5.21,2.51-2.1,1-4.2,2.08-6.24,3.22-1.66.93-3.24,1.95-4.85,2.94-2,1.24-4,2.42-6,3.75-1.31.9-2.53,1.91-3.8,2.85q-5.6,4.13-10.75,8.76c-1.46,1.31-3,2.58-4.34,3.94-1.61,1.58-3.12,3.24-4.65,4.89-1.36,1.45-2.72,2.9-4,4.41-1.45,1.7-2.83,3.45-4.2,5.22-1.24,1.59-2.45,3.19-3.62,4.84q-1.93,2.72-3.73,5.52c-1.11,1.72-2.15,3.47-3.18,5.24S593,907.13,592,909.1s-1.84,3.76-2.72,5.66-1.88,4-2.72,6-1.54,4.17-2.29,6.26q-1.74,4.9-3.14,10c-.69,2.53-1.43,5-2,7.62A140.22,140.22,0,0,0,641.16,1026.38Z"/><path class="cls-4" d="M1066.36,936.21v.11a140.25,140.25,0,0,0,57.08,85.51c-.54-.9-1-1.84-1.53-2.76-.2-.35-.4-.7-.59-1.06-1.32-2.45-2.54-5-3.64-7.54,0-.12-.09-.25-.14-.37-1-2.37-1.87-4.8-2.67-7.27-.18-.56-.36-1.12-.53-1.69-.79-2.6-1.48-5.23-2-7.92-.06-.27-.09-.55-.14-.82-.47-2.39-.83-4.81-1.11-7.26-.09-.79-.18-1.59-.25-2.39-.23-2.55-.38-5.12-.39-7.73,0-.17,0-.34,0-.51a92.35,92.35,0,1,1,184.7,0c0,1-.07,2-.1,3,0,1.52-.11,3-.23,4.54-.11,1.31-.25,2.61-.41,3.91-.19,1.56-.44,3.1-.71,4.64s-.51,2.83-.83,4.22c-.44,2-.93,3.89-1.49,5.79-.29,1-.6,1.95-.92,2.92q-.93,2.79-2,5.51c-.24.59-.45,1.19-.7,1.78-1,2.37-2.15,4.68-3.36,6.94-.31.58-.64,1.16-1,1.74-.45.79-.86,1.59-1.32,2.37a139.88,139.88,0,0,0,57.07-85.51v-.11c-.24-.86-.56-1.68-.82-2.54-.37-1.23-.79-2.44-1.2-3.66-.94-2.84-1.95-5.64-3.07-8.39q-.86-2.14-1.78-4.25c-1.11-2.53-2.33-5-3.59-7.45-.71-1.4-1.39-2.81-2.15-4.17-1.5-2.69-3.12-5.3-4.78-7.87-.63-1-1.19-2-1.85-3-2.25-3.32-4.67-6.52-7.19-9.62-1.12-1.39-2.33-2.69-3.51-4-1.56-1.79-3.14-3.56-4.79-5.27-1.36-1.41-2.77-2.76-4.19-4.1-1.61-1.53-3.24-3-4.92-4.47-1.51-1.31-3-2.6-4.6-3.84-1.74-1.39-3.53-2.7-5.34-4-1.59-1.15-3.16-2.31-4.8-3.39-2.12-1.41-4.34-2.69-6.54-4-2.41-1.4-4.84-2.74-7.34-4s-5-2.51-7.52-3.62c-1.84-.8-3.73-1.48-5.61-2.2-2.07-.8-4.14-1.59-6.26-2.29s-4-1.25-6.09-1.83-4.17-1.13-6.29-1.62-4.21-.95-6.35-1.35-4.38-.7-6.58-1-4.25-.61-6.41-.81c-2.57-.23-5.19-.3-7.81-.39l-1.1-.05c-1.32,0-2.62-.16-3.94-.16a141.58,141.58,0,0,0-136.33,103.32Z"/><path class="cls-4" d="M1352.38,790a46.16,46.16,0,0,0,44-32.36,46.05,46.05,0,0,0-87.94,0A46,46,0,0,0,1352.38,790Z"/><path class="cls-4" d="M1453.58,888.69a46.18,46.18,0,0,0,44-32.36,46.06,46.06,0,0,0-87.95,0A46,46,0,0,0,1453.58,888.69Z"/><path class="cls-4" d="M1554.79,728.5a43.32,43.32,0,0,0-40.63,29,42.62,42.62,0,0,0,35.54,29,40.08,40.08,0,0,0,5.09.32,43.07,43.07,0,0,0,40.74-29.07A43,43,0,0,0,1554.79,728.5Z"/><path class="cls-4" d="M1452.42,686.8a42.89,42.89,0,0,0,40.63-29.17,43,43,0,0,0-81.37,0A42.92,42.92,0,0,0,1452.42,686.8Z"/><path class="cls-5" d="M1720.39,762.25c0,9.52-.27,19-.65,28.43,0,.75,0,1.5,0,2.24a.36.36,0,0,1,0-.1s0,.07,0,.11a777.33,777.33,0,0,1,18.09,166.74c0,428.76-348.9,777.66-777.66,777.66s-777.66-348.9-777.66-777.66a781.79,781.79,0,0,1,18-166.74c-.36-10.2-.65-20.4-.65-30.68A757.7,757.7,0,0,1,244,506.72c1.17-3.28,2.22-6.61,3.43-9.86v0h0A845.27,845.27,0,0,0,110.09,959.67c0,468.69,381.3,850,850,850s850-381.31,850-850a845.28,845.28,0,0,0-137.38-462.83A757.7,757.7,0,0,1,1720.39,762.25Z"/><path class="cls-3" d="M513.17,1526.1a720.77,720.77,0,0,0,972.11-71.84l-69.81-83.19h0l0,0a760.43,760.43,0,0,1-910.78.05l-69.8,83.19A727.38,727.38,0,0,0,513.17,1526.1Z"/><path class="cls-6" d="M244,506.72A758.61,758.61,0,0,0,199.8,762.25c0,10.28.27,20.49.67,30.67C277,444,588.49,182,960.08,182s683,261.94,759.59,610.84a.36.36,0,0,0,0,.1c0-.74,0-1.49,0-2.24.35-9.44.62-18.9.62-28.43a758.42,758.42,0,0,0-47.65-265.39c-151.77-232.92-414.5-387.23-712.63-387.23S399.23,263.94,247.46,496.84v0C246.24,500.11,245.19,503.44,244,506.72Z"/></svg>